<svg xmlns="http://www.w3.org/2000/svg" height="24" viewBox="0 -960 960 960" width="24"><path d="M227.077-166.154q-25.577 0-43.558-17.98-17.981-17.981-17.981-43.558v-505.231q0-25.577 17.981-43.558 17.981-17.981 43.558-17.981h505.846q25.577 0 43.558 17.981 17.981 17.981 17.981 43.558v236.885q-9.412-3.002-18.61-5.021-9.198-2.018-18.314-4.249v-227.615q0-9.231-7.692-16.923-7.692-7.692-16.923-7.692H227.077q-9.231 0-16.923 7.692-7.692 7.692-7.692 16.923v505.231q0 9.231 7.692 16.923 7.692 7.692 16.923 7.692h230.262q1.507 10.116 3.629 19.101 2.121 8.985 5.917 17.822H227.077Zm-24.615-78.769V-203.077v-554.461V-505.308v-3 263.385Zm100.615-68h160.751q2.21-9.115 5.46-18.25t7.404-18.673H303.077v36.923Zm0-148.923h266.192q17.846-11.885 34.558-20.269Q620.539-490.5 640-495.962v-2.807H303.077v36.923Zm0-148.923h353.846v-36.924H303.077v36.924ZM718.195-84.615q-65.041 0-110.388-45.305-45.346-45.305-45.346-110.346 0-65.042 45.305-110.388Q653.071-396 718.113-396q65.041 0 110.387 45.305 45.346 45.305 45.346 110.346t-45.304 110.388q-45.305 45.346-110.347 45.346Zm-14.81-41.539h30.153v-99.384h99.385v-29.539h-99.385v-99.385h-30.153v99.385H604v29.539h99.385v99.384Z"/></svg>